<svg width="32" height="33" viewBox="0 0 32 33" fill="none" xmlns="http://www.w3.org/2000/svg">
<path d="M22.31 9.08252C21.53 9.08252 20.9 9.71252 20.9 10.4925C20.9 11.2725 21.53 11.9025 22.31 11.9025C23.09 11.9025 23.72 11.2725 23.72 10.4925C23.72 9.71252 23.09 9.08252 22.31 9.08252Z" fill="#EE6451"/>
<path d="M16.04 10.4126C12.59 10.4126 9.78998 13.2126 9.78998 16.6626C9.78998 20.1126 12.59 22.9126 16.04 22.9126C19.49 22.9126 22.29 20.1126 22.29 16.6626C22.29 13.2126 19.49 10.4126 16.04 10.4126ZM16.04 20.6726C13.83 20.6726 12.04 18.8726 12.04 16.6726C12.04 14.4726 13.84 12.6726 16.04 12.6726C18.24 12.6726 20.04 14.4726 20.04 16.6726C20.04 18.8726 18.24 20.6726 16.04 20.6726Z" fill="#EE6451"/>
<path d="M20.77 4.6626H11.23C7.24 4.6626 4 7.9026 4 11.8926V21.4326C4 25.4226 7.24 28.6626 11.23 28.6626H20.77C24.76 28.6626 28 25.4226 28 21.4326V11.8926C28 7.9026 24.76 4.6626 20.77 4.6626ZM25.74 21.4326C25.74 24.1726 23.52 26.3926 20.77 26.3926H11.23C8.49 26.3926 6.26 24.1726 6.26 21.4326V11.8926C6.26 9.1526 8.48 6.9326 11.23 6.9326H20.77C23.51 6.9326 25.74 9.1526 25.74 11.8926V21.4326Z" fill="#EE6451"/>
</svg>
