<svg width="32" height="33" viewBox="0 0 32 33" fill="none" xmlns="http://www.w3.org/2000/svg">
<path d="M6.97619 3.88965C5.33903 3.88965 4 5.22868 4 6.86584V25.9135C4 27.5506 5.33903 28.8896 6.97619 28.8896H26.0238C27.661 28.8896 29 27.5506 29 25.9135V6.86584C29 5.22868 27.661 3.88965 26.0238 3.88965H6.97619ZM6.97619 5.08012H26.0238C27.0188 5.08012 27.8095 5.87085 27.8095 6.86584V25.9135C27.8095 26.9084 27.0188 27.6992 26.0238 27.6992H6.97619C5.9812 27.6992 5.19048 26.9084 5.19048 25.9135V6.86584C5.19048 5.87085 5.9812 5.08012 6.97619 5.08012ZM17.1208 7.46108C16.9632 7.46109 16.8119 7.52365 16.7003 7.63502C16.5888 7.7464 16.5259 7.89749 16.5256 8.05515C16.5256 8.05515 16.519 10.9571 16.5128 13.8657C16.5096 15.32 16.5058 16.7758 16.5035 17.8719C16.5011 18.968 16.5 19.6616 16.5 19.7193C16.5 20.7998 15.5187 21.6828 14.4004 21.6828C13.291 21.6828 12.4054 20.7961 12.4054 19.6867C12.4054 18.5773 13.291 17.6917 14.4004 17.6917C14.438 17.6917 14.5137 17.7041 14.6434 17.7196C14.727 17.7297 14.8118 17.7218 14.8921 17.6967C14.9725 17.6715 15.0466 17.6296 15.1096 17.5736C15.1725 17.5177 15.2229 17.449 15.2574 17.3722C15.2918 17.2954 15.3096 17.2121 15.3095 17.1279V14.6272C15.3095 14.4758 15.2518 14.33 15.1481 14.2197C15.0444 14.1093 14.9026 14.0426 14.7515 14.0331C14.6587 14.0273 14.542 14.0157 14.4004 14.0157C11.2757 14.0157 8.72935 16.562 8.72935 19.6867C8.72935 22.8114 11.2757 25.3577 14.4004 25.3577C17.525 25.3577 20.0714 22.8114 20.0714 19.6867V14.3005C20.9373 14.993 22.0164 15.4317 23.2081 15.4317C23.3706 15.4317 23.5252 15.4221 23.6731 15.4084C23.8209 15.3948 23.9583 15.3264 24.0583 15.2167C24.1583 15.1071 24.2137 14.964 24.2137 14.8155V12.0358C24.2138 11.8853 24.1569 11.7404 24.0544 11.6302C23.9519 11.5199 23.8115 11.4526 23.6615 11.4417C21.7896 11.3074 20.2975 9.8493 20.1028 7.9947C20.0876 7.84835 20.0187 7.71282 19.9094 7.61428C19.8001 7.51574 19.6582 7.46116 19.5111 7.46108H17.1208ZM17.7149 8.65155H19.0728C19.5054 10.6151 21.0397 12.1125 23.0232 12.488V14.1935C21.7501 14.1289 20.6318 13.4938 19.9738 12.4927C19.9034 12.3856 19.8003 12.304 19.6798 12.2602C19.5594 12.2163 19.428 12.2126 19.3052 12.2494C19.1824 12.2862 19.0748 12.3617 18.9984 12.4646C18.9219 12.5675 18.8807 12.6924 18.881 12.8205V19.6867C18.881 22.1679 16.8817 24.1673 14.4004 24.1673C11.9192 24.1673 9.91983 22.1679 9.91983 19.6867C9.91983 17.3054 11.7774 15.4154 14.119 15.2631V16.5582C12.5038 16.7085 11.2149 18.0338 11.2149 19.6867C11.2149 21.4392 12.6479 22.8733 14.4004 22.8733C16.144 22.8733 17.6905 21.5007 17.6905 19.7193C17.6905 19.7484 17.6916 18.9703 17.694 17.8743C17.6963 16.7782 17.7001 15.3223 17.7033 13.868C17.7089 11.2568 17.7138 9.15703 17.7149 8.65155Z" fill="#EE6451" stroke="#EE6451" stroke-width="0.5"/>
</svg>
