<svg width="32" height="33" viewBox="0 0 32 33" fill="none" xmlns="http://www.w3.org/2000/svg">
<path fill-rule="evenodd" clip-rule="evenodd" d="M15.71 4.69269C9.76 5.10269 5.01 10.0427 4.82 16.0027C4.74 18.4127 5.39 20.7427 6.69 22.7427L3.75 28.6627C3.84 28.6627 11.02 26.7227 11.02 26.7227C12.71 27.6327 14.61 28.1027 16.54 28.1027C23 28.1027 28.26 22.8427 28.26 16.3827C28.26 9.92269 22.55 4.22269 15.71 4.69269ZM16.53 26.0627C14.82 26.0627 13.13 25.6027 11.66 24.7427C11.5 24.6527 11.29 24.5027 11.29 24.5027C11.29 24.5027 10.96 24.6127 10.87 24.6327L7.66 25.5127L9.03 22.4927C7.48 20.5827 6.72 18.2227 6.87 15.7627C7.16 10.9627 11.04 7.05269 15.84 6.72269C21.48 6.33269 26.2 10.8127 26.2 16.3727C26.2 21.9327 21.86 26.0527 16.52 26.0527L16.53 26.0627Z" fill="#EE6451"/>
<path fill-rule="evenodd" clip-rule="evenodd" d="M21.04 18.1427C20.55 17.8527 19.91 17.5227 19.33 17.7627C18.89 17.9427 18.6 18.6427 18.32 18.9927C18.17 19.1727 18 19.2027 17.77 19.1127C16.1 18.4527 14.83 17.3327 13.91 15.8027C13.75 15.5627 13.78 15.3727 13.97 15.1527C14.25 14.8227 14.6 14.4527 14.67 14.0127C14.75 13.5727 14.54 13.0527 14.36 12.6627C14.13 12.1627 13.87 11.4427 13.37 11.1627C12.91 10.9027 12.3 11.0527 11.89 11.3827C11.18 11.9627 10.84 12.8627 10.85 13.7627C10.85 14.0227 10.88 14.2727 10.94 14.5227C11.44 16.5727 12.85 18.3027 14.5 19.5527C15.92 20.6327 18.27 22.0927 20.14 21.7427C21.05 21.5727 21.94 21.0127 22.3 20.1327C22.41 19.8727 22.46 19.5827 22.4 19.3127C22.28 18.7527 21.51 18.4127 21.05 18.1427H21.04Z" fill="#EE6451"/>
</svg>
