<svg id="Layer_1" data-name="Layer 1" xmlns="http://www.w3.org/2000/svg" viewBox="0 0 96 96"><path d="M76.42,68.05H62a1,1,0,1,1,0-2H76.42a16.6,16.6,0,0,0,2-33.08,1,1,0,0,1-.73-.46,1,1,0,0,1-.1-.85,16.82,16.82,0,0,0,.86-5.28,16.6,16.6,0,0,0-31.65-7,1,1,0,0,1-1.21.53,14.74,14.74,0,0,0-4.4-.68,14.57,14.57,0,0,0-14.57,13.2,1,1,0,0,1-1.23.88,16.1,16.1,0,0,0-3.78-.44,16.6,16.6,0,0,0,0,33.2H36a1,1,0,0,1,0,2H21.6a18.6,18.6,0,0,1,0-37.2,18.21,18.21,0,0,1,3.16.27,16.62,16.62,0,0,1,20.6-13.37A18.6,18.6,0,0,1,79.81,31.16a18.6,18.6,0,0,1-3.39,36.89Z"/><path d="M49,88.22a25,25,0,0,1-17.84-7.39,1,1,0,0,1,1.41-1.41,23.26,23.26,0,0,0,32.86,0,1,1,0,0,1,1.41,1.41A25,25,0,0,1,49,88.22Z"/><path d="M49,80.46a17.41,17.41,0,0,1-12.36-5.11,1,1,0,0,1,0-1.41,1,1,0,0,1,1.42,0,15.49,15.49,0,0,0,21.88,0,1,1,0,0,1,1.42,0,1,1,0,0,1,0,1.41A17.41,17.41,0,0,1,49,80.46Z"/><path d="M49,72.71a9.69,9.69,0,0,1-6.87-2.84,1,1,0,1,1,1.41-1.42,7.71,7.71,0,0,0,10.92,0,1,1,0,1,1,1.42,1.42A9.73,9.73,0,0,1,49,72.71Z"/><path d="M49,67a4,4,0,0,1-2.83-1.16,4,4,0,1,1,5.66,0A4,4,0,0,1,49,67Zm0-6a2,2,0,0,0-1.42.58,2,2,0,1,0,2.84,0A2,2,0,0,0,49,61Z"/><path d="M66.58,40.37h-.19L54.82,39.25a2,2,0,0,1-1.21-3.34l2.54-2.54c-3.87-4.23-10-2.77-12.53-1.9a2.51,2.51,0,0,1-2.48-4.25c9.14-8.22,18.09-1.77,20.69.47l2.25-2.25a2,2,0,0,1,3.35,1.2l1.1,11.58A2,2,0,0,1,68,39.79,2,2,0,0,1,66.58,40.37Zm0-2ZM49.12,28.5a11,11,0,0,1,9.18,4.33,1,1,0,0,1-.09,1.31L55,37.32l11.52,1L65.44,26.84l-2.87,2.94a1.07,1.07,0,0,1-.72.3,1,1,0,0,1-.71-.31c-.38-.39-9.31-9.47-18.66-1.07a.51.51,0,0,0-.16.52.45.45,0,0,0,.14.23.5.5,0,0,0,.51.13A19.51,19.51,0,0,1,49.12,28.5Z"/><path d="M47.19,55c-5.18,0-9.37-3.11-11-4.53l-2.25,2.25a2,2,0,0,1-3.35-1.2L29.47,39.9A2,2,0,0,1,30,38.32a2,2,0,0,1,1.58-.57h0l11.57,1.11a1.94,1.94,0,0,1,1.66,1.29,2,2,0,0,1-.45,2.06l-2.54,2.54c3.71,4.07,9.38,3,12.53,1.89a2.48,2.48,0,0,1,2.58.61,2.42,2.42,0,0,1,.65,1.14,2.52,2.52,0,0,1-.75,2.51A14.24,14.24,0,0,1,47.19,55ZM36.14,48h0a1,1,0,0,1,.71.3c.38.39,9.31,9.48,18.66,1.07a.51.51,0,0,0,.16-.52.5.5,0,0,0-.14-.23.48.48,0,0,0-.51-.12c-3.08,1-10.72,2.82-15.33-3.25A1,1,0,0,1,39.79,44L43,40.79l-11.52-1,1.11,11.53,2.87-3A1,1,0,0,1,36.14,48Zm-4.72-8.29Z"/></svg>