<?xml version="1.0" standalone="no"?>
<!DOCTYPE svg PUBLIC "-//W3C//DTD SVG 20010904//EN"
 "http://www.w3.org/TR/2001/REC-SVG-20010904/DTD/svg10.dtd">
<svg version="1.0" xmlns="http://www.w3.org/2000/svg"
 width="512.000000pt" height="512.000000pt" viewBox="0 0 512.000000 512.000000"
 preserveAspectRatio="xMidYMid meet">

<g transform="translate(0.000000,512.000000) scale(0.100000,-0.100000)"
fill="#000000" stroke="none">
<path d="M2290 4230 l0 -570 90 0 90 0 -2 568 -3 567 -87 3 -88 3 0 -571z"/>
<path d="M1119 4776 c-89 -31 -151 -94 -179 -179 -16 -51 -9 -162 14 -209 27
-56 93 -116 156 -139 75 -28 158 -22 230 17 53 29 116 98 126 141 l6 23 224 0
224 0 0 -385 0 -385 90 0 90 0 0 475 0 475 -314 0 -314 0 -26 45 c-64 108
-211 163 -327 121z"/>
<path d="M3060 4781 c-69 -21 -141 -83 -175 -151 -23 -44 -30 -143 -16 -197
15 -56 66 -121 123 -158 l47 -30 0 -292 1 -293 90 0 90 0 0 290 0 290 43 21
c58 29 94 65 125 124 38 72 38 178 0 251 -33 63 -95 118 -156 138 -48 17 -129
20 -172 7z"/>
<path d="M2660 3925 l0 -265 90 0 90 0 0 265 0 265 -90 0 -90 0 0 -265z"/>
<path d="M4435 4131 c-56 -25 -101 -66 -132 -118 -35 -61 -44 -172 -18 -240
24 -63 84 -126 145 -152 l50 -22 0 -134 0 -135 -465 0 -465 0 0 -90 0 -90 550
0 550 0 0 228 0 227 47 35 c127 95 164 230 98 360 -29 57 -77 103 -135 129
-59 27 -169 28 -225 2z"/>
<path d="M300 3795 l0 -85 333 -2 332 -3 3 -277 2 -278 316 0 315 0 -3 88 -3
87 -227 3 -228 2 0 275 0 275 -420 0 -420 0 0 -85z"/>
<path d="M1770 2680 l0 -800 800 0 800 0 0 800 0 800 -800 0 -800 0 0 -800z
m350 253 l0 -388 167 -167 168 -168 372 0 373 0 0 -85 0 -85 -412 0 -412 0
-64 63 c-37 36 -66 57 -69 50 -26 -71 -94 -116 -164 -110 -155 13 -190 221
-49 283 l40 18 -60 61 -60 61 0 427 0 427 85 0 85 0 0 -387z m550 112 l0 -275
265 0 265 0 0 -90 0 -90 -350 0 -350 0 0 365 0 365 85 0 85 0 0 -275z"/>
<path d="M530 2497 l0 -453 -34 -12 c-47 -17 -114 -85 -139 -140 -65 -145 15
-328 165 -378 62 -20 158 -15 213 11 50 25 105 80 130 130 30 62 32 169 5 233
-23 52 -89 123 -135 144 l-25 11 0 364 0 363 445 0 446 0 -3 88 -3 87 -532 3
-533 2 0 -453z"/>
<path d="M3550 2860 l0 -90 270 0 271 0 -3 88 -3 87 -267 3 -268 2 0 -90z"/>
<path d="M4478 2716 c-63 -17 -123 -58 -156 -106 l-27 -39 -372 -1 -373 0 0
-85 0 -85 358 0 357 0 17 -48 c67 -186 314 -245 456 -109 58 55 86 121 86 202
-1 84 -17 128 -74 189 -71 77 -176 109 -272 82z"/>
<path d="M1060 2485 l0 -85 270 0 270 0 0 85 0 85 -270 0 -270 0 0 -85z"/>
<path d="M1230 1790 l0 -420 -49 -24 c-203 -103 -198 -393 9 -502 53 -28 191
-26 246 3 61 33 121 106 140 171 39 131 -28 283 -144 331 l-32 13 0 334 0 333
98 3 97 3 3 88 3 87 -186 0 -185 0 0 -420z"/>
<path d="M3550 2120 l0 -90 225 0 225 0 0 -474 0 -474 -45 -22 c-164 -79 -201
-314 -70 -445 174 -173 475 -53 475 191 0 113 -45 194 -137 246 l-53 30 0 564
0 564 -310 0 -310 0 0 -90z"/>
<path d="M1922 1433 l3 -268 88 -3 87 -3 0 271 0 270 -90 0 -90 0 2 -267z"/>
<path d="M2290 1270 l0 -430 -39 -19 c-50 -26 -96 -72 -124 -125 -31 -58 -31
-183 0 -242 56 -105 141 -158 253 -158 112 0 197 53 253 158 31 59 31 184 -1
243 -27 51 -82 106 -128 128 l-34 16 0 429 0 430 -90 0 -90 0 0 -430z"/>
<path d="M2662 1433 l3 -268 85 0 85 0 3 268 2 267 -90 0 -90 0 2 -267z"/>
<path d="M3042 1003 l3 -698 88 -3 87 -3 0 701 0 700 -90 0 -90 0 2 -697z"/>
</g>
</svg>
