<?xml version="1.0" standalone="no"?>
<!DOCTYPE svg PUBLIC "-//W3C//DTD SVG 20010904//EN"
 "http://www.w3.org/TR/2001/REC-SVG-20010904/DTD/svg10.dtd">
<svg version="1.0" xmlns="http://www.w3.org/2000/svg"
 width="512.000000pt" height="486.000000pt" viewBox="0 0 512.000000 486.000000"
 preserveAspectRatio="xMidYMid meet">

<g transform="translate(0.000000,486.000000) scale(0.100000,-0.100000)"
fill="#000000" stroke="none">
<path d="M2390 4854 c-294 -33 -440 -67 -658 -150 -588 -226 -1103 -697 -1463
-1340 -97 -174 -139 -265 -149 -330 -17 -101 18 -210 91 -286 l37 -39 -29 -87
c-95 -279 -159 -569 -194 -882 -17 -160 -10 -224 35 -315 50 -102 141 -178
262 -218 14 -5 17 -37 21 -289 3 -228 8 -295 21 -343 84 -289 310 -500 598
-559 108 -22 508 -23 593 -1 85 22 150 61 208 125 98 107 131 227 104 377 -49
265 -68 457 -68 672 0 204 12 340 52 584 28 169 30 194 19 254 -31 179 -161
315 -338 352 -65 14 -432 14 -526 1 -95 -14 -209 -54 -290 -102 -91 -53 -212
-174 -264 -263 -83 -141 -112 -269 -112 -495 l0 -141 -27 15 c-80 41 -126 127
-125 227 3 209 90 643 185 923 l33 99 60 2 c85 4 165 38 222 93 35 34 69 87
124 193 41 80 110 199 152 263 76 115 213 293 255 330 21 19 22 19 59 -2 52
-29 145 -52 208 -52 87 0 171 33 294 115 255 171 496 248 780 248 279 0 532
-79 768 -240 134 -91 187 -114 281 -120 84 -6 164 11 233 50 37 20 38 20 59 1
42 -37 179 -214 254 -328 42 -64 112 -184 155 -268 45 -86 96 -168 117 -190
56 -58 132 -90 215 -92 l69 -1 23 -75 c79 -248 142 -532 176 -795 31 -231 31
-299 -1 -361 -23 -44 -96 -114 -120 -114 -5 0 -9 80 -9 188 -1 206 -13 297
-54 406 -39 102 -92 182 -176 267 -120 120 -268 194 -436 219 -94 13 -461 13
-526 -1 -126 -27 -249 -121 -301 -230 -51 -109 -54 -161 -19 -374 76 -458 73
-741 -9 -1223 -25 -141 -19 -211 24 -305 31 -67 112 -156 174 -190 91 -49 146
-57 396 -57 245 0 329 10 440 55 187 75 349 235 426 419 46 111 61 219 61 445
l0 196 53 19 c66 24 125 64 172 118 50 59 74 108 91 190 13 62 13 88 -1 222
-31 303 -90 599 -175 882 l-49 162 38 40 c48 50 79 114 90 183 18 109 -12 194
-154 444 -463 816 -1159 1339 -1945 1460 -100 15 -435 28 -510 19z m515 -194
c762 -130 1410 -648 1853 -1480 69 -129 82 -176 69 -238 -17 -83 -112 -142
-199 -123 -69 16 -92 43 -173 201 -347 677 -900 1148 -1506 1284 -641 143
-1289 -72 -1794 -595 -190 -197 -361 -437 -490 -689 -50 -97 -87 -157 -105
-170 -84 -60 -213 -32 -254 54 -37 79 -18 143 109 371 426 765 1075 1264 1797
1384 166 28 195 29 398 25 116 -2 215 -10 295 -24z m-90 -505 c320 -53 654
-218 897 -442 42 -38 45 -44 29 -53 -30 -15 -97 -23 -145 -16 -33 5 -77 28
-158 82 -139 92 -261 152 -398 198 -329 109 -630 109 -958 1 -140 -47 -245
-99 -390 -194 -89 -58 -136 -82 -168 -87 -48 -7 -115 1 -145 16 -16 9 -13 15
29 53 258 236 609 405 927 446 44 6 94 13 110 15 55 8 279 -3 370 -19z m-1250
-1967 c58 -30 85 -57 113 -113 33 -68 34 -104 8 -257 -80 -452 -78 -838 5
-1281 17 -91 18 -117 9 -163 -14 -67 -59 -128 -125 -169 l-48 -30 -231 -3
c-179 -3 -248 0 -306 12 -111 23 -212 78 -296 161 -76 76 -119 143 -155 245
-23 64 -23 74 -27 560 -2 338 0 515 8 560 33 190 146 349 310 434 130 67 178
75 465 73 217 -2 221 -3 270 -29z m2605 7 c165 -52 298 -161 369 -306 71 -143
73 -165 69 -734 -4 -492 -4 -501 -27 -565 -74 -210 -245 -363 -451 -406 -58
-12 -127 -15 -306 -12 l-231 3 -48 30 c-66 40 -111 102 -125 168 -9 45 -7 74
15 198 76 432 76 819 0 1247 -27 153 -26 188 7 257 27 53 55 83 103 108 66 34
91 36 335 33 188 -3 246 -7 290 -21z"/>
<path d="M713 1596 l-28 -24 -3 -324 c-2 -350 -1 -361 52 -386 33 -17 69 -9
96 20 19 21 20 34 20 355 l0 334 -25 24 c-31 32 -75 32 -112 1z"/>
<path d="M755 655 c-42 -41 -29 -97 41 -175 67 -74 191 -137 247 -124 29 6 67
54 67 86 0 28 -47 74 -92 89 -39 12 -82 49 -147 122 -31 36 -82 37 -116 2z"/>
<path d="M3701 1701 c-13 -4 -33 -19 -44 -33 -19 -26 -20 -31 -7 -165 8 -80
13 -236 12 -371 -1 -218 0 -234 18 -252 43 -43 108 -33 136 22 35 68 17 703
-21 764 -17 26 -62 43 -94 35z"/>
<path d="M3655 591 c-33 -14 -47 -37 -60 -103 -16 -76 -2 -122 42 -139 69 -26
115 22 128 132 6 50 4 59 -17 82 -26 29 -63 40 -93 28z"/>
</g>
</svg>
