<?xml version="1.0" standalone="no"?>
<!DOCTYPE svg PUBLIC "-//W3C//DTD SVG 20010904//EN"
 "http://www.w3.org/TR/2001/REC-SVG-20010904/DTD/svg10.dtd">
<svg version="1.0" xmlns="http://www.w3.org/2000/svg"
 width="512.000000pt" height="512.000000pt" viewBox="0 0 512.000000 512.000000"
 preserveAspectRatio="xMidYMid meet">

<g transform="translate(0.000000,512.000000) scale(0.100000,-0.100000)"
fill="#000000" stroke="none">
<path d="M1180 5090 c-20 -20 -20 -33 -20 -788 l0 -769 23 -21 c38 -36 88 -28
112 19 13 24 15 133 15 729 l0 700 1250 0 1250 0 0 -700 c0 -596 2 -705 15
-729 24 -47 78 -56 113 -18 l22 23 0 767 c0 754 0 767 -20 787 -20 20 -33 20
-1380 20 -1347 0 -1360 0 -1380 -20z"/>
<path d="M360 3381 c-134 -43 -238 -127 -298 -239 -63 -118 -62 -97 -62 -1081
0 -790 2 -902 16 -960 44 -178 174 -312 353 -365 44 -13 108 -16 338 -16 l284
0 24 25 c30 29 32 64 6 96 l-19 24 -294 5 -294 5 -66 33 c-77 38 -130 92 -167
171 l-26 56 0 925 0 925 26 55 c47 100 121 166 218 196 39 12 339 14 1933 14
1361 0 1894 3 1911 11 24 11 47 47 47 73 0 7 -9 25 -21 40 l-20 26 -1917 -1
c-1810 0 -1920 -1 -1972 -18z"/>
<path d="M4411 3374 c-26 -33 -27 -65 -2 -95 18 -23 28 -24 158 -30 76 -3 152
-11 169 -16 83 -28 160 -100 203 -193 l26 -55 0 -925 0 -925 -26 -56 c-37 -79
-90 -133 -167 -171 l-66 -33 -294 -5 -294 -5 -19 -24 c-26 -32 -24 -67 6 -96
l24 -25 284 0 c230 0 294 3 338 16 179 53 309 187 353 365 14 58 16 170 16
960 0 984 1 963 -62 1081 -40 76 -126 162 -197 198 -98 49 -153 60 -297 60
-131 0 -133 0 -153 -26z"/>
<path d="M569 3077 c-152 -43 -252 -175 -251 -331 1 -130 71 -239 190 -298 58
-29 76 -33 147 -33 97 0 171 30 237 97 72 72 93 126 93 238 0 84 -3 101 -28
148 -36 69 -97 128 -161 158 -64 29 -165 38 -227 21z m175 -166 c103 -58 127
-195 50 -281 -67 -74 -151 -87 -239 -36 -73 43 -106 147 -71 229 16 40 77 95
114 103 15 3 32 7 37 9 19 6 80 -7 109 -24z"/>
<path d="M1367 3080 c-95 -24 -184 -97 -227 -185 -35 -71 -40 -189 -10 -267
28 -75 98 -149 175 -185 50 -23 73 -28 140 -28 71 0 89 4 147 33 73 36 124 87
160 161 19 38 23 63 23 141 0 111 -20 162 -93 237 -76 79 -211 119 -315 93z
m163 -165 c61 -32 100 -96 100 -165 0 -76 -41 -137 -115 -171 -54 -25 -92 -24
-151 6 -157 79 -131 304 41 346 36 8 90 1 125 -16z"/>
<path d="M869 2219 c-14 -5 -31 -21 -38 -35 -8 -17 -11 -151 -11 -444 l0 -419
24 -28 c23 -27 28 -28 115 -28 80 0 93 3 112 22 28 28 29 77 2 104 -11 11 -39
23 -62 26 l-41 6 2 326 3 326 1585 0 1585 0 3 -326 2 -326 -41 -6 c-23 -3 -51
-15 -62 -26 -27 -27 -26 -76 2 -104 19 -19 32 -22 112 -22 87 0 92 1 115 28
l24 28 0 419 c0 292 -3 427 -11 444 -7 14 -25 30 -42 36 -40 13 -3340 13
-3378 -1z"/>
<path d="M1103 1860 c-45 -18 -55 -72 -22 -114 19 -24 27 -26 90 -26 l70 0 -6
-42 c-25 -185 -123 -1168 -119 -1186 7 -23 50 -52 78 -52 8 0 26 10 41 23 25
22 26 25 90 627 36 333 65 611 65 618 0 9 241 12 1170 12 929 0 1170 -3 1170
-12 0 -7 36 -348 80 -758 44 -410 80 -755 80 -767 l0 -23 -1330 0 -1330 0 1
67 c2 61 -1 69 -25 90 -34 29 -58 29 -91 0 -21 -18 -28 -35 -35 -92 -16 -118
-13 -172 10 -195 20 -20 33 -20 1470 -20 1437 0 1450 0 1470 20 14 14 20 33
20 64 0 38 -149 1462 -165 1584 l-6 42 70 0 c63 0 71 2 90 26 26 33 27 65 2
95 l-19 24 -1449 2 c-822 1 -1457 -2 -1470 -7z"/>
<path d="M1611 1272 c-30 -24 -31 -76 -2 -105 l22 -22 929 0 929 0 22 22 c29
29 28 81 -2 105 -20 17 -79 18 -949 18 -870 0 -929 -1 -949 -18z"/>
<path d="M1583 938 c-46 -22 -45 -114 2 -132 22 -8 1928 -8 1950 0 10 4 23 21
30 37 16 39 3 80 -31 96 -34 15 -1919 15 -1951 -1z"/>
<path d="M1555 599 c-16 -5 -36 -16 -42 -26 -20 -27 -16 -77 8 -99 20 -18 52
-19 1039 -19 987 0 1019 1 1039 19 23 21 28 65 11 96 -6 11 -27 24 -48 30 -47
13 -1963 12 -2007 -1z"/>
</g>
</svg>
