<?xml version="1.0" standalone="no"?>
<!DOCTYPE svg PUBLIC "-//W3C//DTD SVG 20010904//EN"
 "http://www.w3.org/TR/2001/REC-SVG-20010904/DTD/svg10.dtd">
<svg version="1.0" xmlns="http://www.w3.org/2000/svg"
 width="512.000000pt" height="512.000000pt" viewBox="0 0 512.000000 512.000000"
 preserveAspectRatio="xMidYMid meet">

<g transform="translate(0.000000,512.000000) scale(0.100000,-0.100000)"
fill="#000000" stroke="none">
<path d="M215 4951 c-54 -14 -112 -50 -149 -93 -71 -82 -67 32 -64 -1763 l3
-1620 30 -55 c17 -30 49 -69 73 -87 85 -64 63 -63 940 -63 752 0 794 -1 790
-17 -3 -10 -38 -133 -78 -274 l-73 -256 -84 -7 c-102 -8 -157 -32 -213 -92
-63 -69 -73 -100 -78 -252 -5 -146 3 -182 44 -201 35 -16 2373 -16 2408 0 41
19 49 55 44 201 -5 152 -15 183 -78 252 -56 60 -111 84 -214 92 l-84 7 -76
266 c-42 146 -76 270 -76 274 0 4 357 7 793 7 876 0 854 -1 939 63 24 18 56
57 73 87 l30 55 3 600 c1 330 0 610 -3 622 -3 13 -19 30 -36 39 -26 13 -36 13
-60 3 -17 -6 -34 -20 -39 -30 -6 -11 -10 -246 -10 -599 0 -636 1 -627 -58
-667 -26 -17 -126 -18 -2352 -18 -2290 0 -2325 0 -2354 20 -59 40 -56 -56 -56
1672 0 1492 1 1590 18 1623 10 20 32 42 52 52 33 17 166 18 2340 18 2174 0
2307 -1 2340 -18 74 -36 70 14 70 -943 l0 -856 23 -21 c33 -31 80 -29 106 4
21 27 21 32 21 884 0 951 2 919 -66 998 -20 24 -59 55 -88 70 l-51 27 -2335 2
c-1284 0 -2348 -2 -2365 -6z m2920 -3733 c8 -29 43 -153 78 -275 l64 -221 -83
-4 c-70 -2 -87 -7 -105 -25 -27 -27 -29 -75 -5 -102 17 -18 35 -20 251 -23
218 -3 235 -4 262 -24 45 -33 63 -79 63 -161 l0 -73 -1100 0 -1100 0 0 73 c0
82 18 128 63 161 28 21 41 21 669 26 619 5 640 6 654 24 21 29 18 80 -7 102
-20 18 -45 19 -509 22 l-487 3 63 222 c35 122 71 246 79 275 l16 52 559 0 559
0 16 -52z"/>
<path d="M383 4633 c-13 -2 -32 -16 -43 -31 -20 -25 -21 -36 -18 -275 3 -248
3 -249 27 -268 28 -22 69 -25 97 -5 17 13 19 31 24 223 l5 208 2085 0 2085 0
3 -1217 2 -1218 -2090 0 -2090 0 0 874 0 875 -26 20 c-36 29 -60 26 -95 -8
l-29 -30 2 -921 3 -922 24 -19 c23 -19 72 -19 2211 -19 2139 0 2188 0 2211 19
l24 19 0 1326 0 1325 -23 23 -23 23 -2172 1 c-1194 1 -2182 -1 -2194 -3z"/>
<path d="M2523 4294 c-61 -22 -126 -85 -153 -146 -28 -63 -31 -155 -8 -209
l16 -36 -172 -171 -171 -170 -30 14 c-41 18 -157 18 -202 -1 -37 -16 -37 -15
-70 18 l-34 33 17 39 c26 63 22 154 -10 219 -96 197 -370 206 -483 17 -42 -70
-51 -138 -27 -220 l17 -63 -74 -74 -74 -74 -49 16 c-72 25 -173 15 -233 -22
-128 -80 -170 -231 -100 -365 87 -168 297 -200 433 -65 79 80 103 179 68 282
l-16 47 79 79 79 79 37 -16 c47 -19 147 -19 194 0 37 16 37 15 70 -18 33 -33
34 -33 18 -70 -8 -20 -15 -65 -15 -99 0 -186 175 -316 355 -264 45 14 69 29
110 69 80 81 104 179 69 283 l-16 47 169 169 168 168 49 -16 c102 -35 222 -2
295 81 47 54 64 101 64 180 1 152 -106 264 -258 271 -46 3 -85 -2 -112 -12z
m168 -157 c19 -13 40 -39 48 -61 41 -108 -85 -208 -186 -146 -40 24 -56 54
-56 105 0 102 109 159 194 102z m-1150 -283 c57 -55 56 -139 -2 -188 -24 -20
-41 -26 -81 -26 -43 0 -54 4 -83 33 -44 44 -54 94 -28 144 39 75 135 94 194
37z m430 -431 c88 -52 71 -188 -27 -222 -52 -18 -88 -9 -131 34 -27 27 -33 41
-33 74 0 81 47 130 123 131 22 0 52 -8 68 -17z m-965 -106 c64 -58 55 -152
-19 -198 -77 -48 -187 11 -187 101 0 81 47 129 128 130 34 0 49 -6 78 -33z"/>
<path d="M3095 4285 c-25 -24 -25 -26 -25 -210 0 -184 0 -186 25 -210 l24 -25
654 0 c644 0 654 0 675 20 21 20 22 28 22 215 0 182 -1 196 -20 215 -20 20
-33 20 -675 20 l-656 0 -24 -25z m1225 -210 l0 -85 -550 0 -550 0 0 85 0 85
550 0 550 0 0 -85z"/>
<path d="M4051 3660 c-52 -22 -50 3 -51 -716 0 -647 1 -673 19 -695 19 -23 23
-24 208 -27 180 -3 190 -2 216 18 l27 21 0 679 c0 652 -1 679 -19 701 -19 23
-23 24 -198 26 -102 2 -188 -2 -202 -7z m269 -715 l0 -575 -85 0 -85 0 0 575
0 575 85 0 85 0 0 -575z"/>
<path d="M3379 3241 l-24 -19 0 -477 0 -477 28 -24 c27 -23 33 -24 202 -24
188 0 217 6 235 49 7 18 10 170 8 490 l-3 463 -24 19 c-21 17 -41 19 -211 19
-170 0 -190 -2 -211 -19z m301 -501 l0 -371 -87 3 -88 3 -3 368 -2 367 90 0
90 0 0 -370z"/>
<path d="M2735 2836 l-25 -25 0 -275 0 -275 27 -21 c26 -20 36 -21 216 -18
185 3 189 4 208 27 18 22 19 42 19 291 0 249 -1 269 -19 291 -19 23 -23 24
-210 27 l-191 3 -25 -25z m295 -296 l0 -170 -85 0 -85 0 0 170 0 170 85 0 85
0 0 -170z"/>
<path d="M703 2693 c-50 -10 -70 -86 -33 -123 19 -19 33 -20 305 -20 272 0
286 1 305 20 38 38 22 100 -31 119 -31 11 -495 14 -546 4z"/>
<path d="M670 2350 c-30 -30 -27 -83 6 -109 26 -21 36 -21 551 -21 l525 0 30
30 c24 25 29 36 24 58 -4 15 -16 35 -28 45 -19 16 -60 17 -554 17 -521 0 -534
0 -554 -20z"/>
</g>
</svg>
