<?xml version="1.0" encoding="utf-8"?>
<!-- Generator: Adobe Illustrator 16.0.0, SVG Export Plug-In . SVG Version: 6.00 Build 0)  -->
<!DOCTYPE svg PUBLIC "-//W3C//DTD SVG 1.1 Tiny//EN" "http://www.w3.org/Graphics/SVG/1.1/DTD/svg11-tiny.dtd">
<svg version="1.1" baseProfile="tiny" id="Layer_1" xmlns="http://www.w3.org/2000/svg" xmlns:xlink="http://www.w3.org/1999/xlink"
	 x="0px" y="0px" width="24px" height="24px" viewBox="0 0 24 24" xml:space="preserve">
<path d="M12.4,5.611V0.949c0-0.221-0.18-0.4-0.4-0.4s-0.4,0.179-0.4,0.4v4.662C8.87,5.819,6.705,8.083,6.705,10.865v7.292
	c0,2.919,2.376,5.294,5.295,5.294s5.295-2.375,5.295-5.294v-7.292C17.295,8.083,15.13,5.819,12.4,5.611z M12,6.37
	c2.479,0,4.494,2.016,4.494,4.495v1.166h-3.383V8.659c0-0.613-0.499-1.111-1.111-1.111s-1.111,0.499-1.111,1.111v3.372H7.506v-1.166
	C7.506,8.386,9.521,6.37,12,6.37z M12.311,8.659v3.556c0,0.171-0.139,0.311-0.311,0.311s-0.311-0.14-0.311-0.311V8.659
	c0-0.172,0.139-0.312,0.311-0.312S12.311,8.487,12.311,8.659z M12,22.651c-2.479,0-4.494-2.016-4.494-4.495V12.83h3.595
	c0.2,0.292,0.52,0.495,0.899,0.495s0.699-0.204,0.899-0.495h3.595v5.326C16.494,20.635,14.479,22.651,12,22.651z"/>
</svg>
