<?xml version="1.0" standalone="no"?>
<!DOCTYPE svg PUBLIC "-//W3C//DTD SVG 20010904//EN"
 "http://www.w3.org/TR/2001/REC-SVG-20010904/DTD/svg10.dtd">
<svg version="1.0" xmlns="http://www.w3.org/2000/svg"
 width="512.000000pt" height="354.000000pt" viewBox="0 0 512.000000 354.000000"
 preserveAspectRatio="xMidYMid meet">

<g transform="translate(0.000000,354.000000) scale(0.100000,-0.100000)"
fill="#000000" stroke="none">
<path d="M910 3524 c-45 -20 -77 -50 -101 -96 -17 -33 -19 -61 -19 -258 l0
-220 -218 0 c-206 0 -220 -1 -262 -22 -24 -13 -58 -40 -74 -61 l-31 -39 -3
-429 -3 -429 -99 0 -100 0 0 -200 0 -200 100 0 99 0 3 -429 3 -429 31 -39 c16
-21 50 -48 74 -60 42 -22 56 -23 262 -23 l218 0 0 -220 c0 -239 5 -264 62
-317 51 -48 82 -53 328 -53 251 0 277 5 333 58 65 62 62 16 65 800 l3 712 979
0 979 0 3 -712 c3 -784 0 -738 65 -800 56 -53 82 -58 333 -58 246 0 277 5 328
53 57 53 62 78 62 317 l0 220 218 0 c206 0 220 1 262 22 24 13 58 40 74 61
l31 39 3 429 3 429 99 0 100 0 0 200 0 200 -100 0 -99 0 -3 429 -3 429 -31 39
c-16 21 -50 48 -74 61 -42 21 -56 22 -262 22 l-218 0 0 220 c0 239 -5 264 -62
317 -51 48 -82 53 -328 53 -251 0 -277 -5 -333 -58 -65 -62 -62 -16 -65 -799
l-3 -713 -979 0 -979 0 -3 713 c-3 783 0 737 -65 799 -56 54 -82 58 -335 58
-185 -1 -240 -4 -268 -16z m470 -1754 l0 -1570 -200 0 -200 0 0 1570 0 1570
200 0 200 0 0 -1570z m2760 0 l0 -1570 -200 0 -200 0 0 1570 0 1570 200 0 200
0 0 -1570z m-3350 0 l0 -980 -200 0 -200 0 0 980 0 980 200 0 200 0 0 -980z
m3940 0 l0 -980 -200 0 -200 0 0 980 0 980 200 0 200 0 0 -980z"/>
</g>
</svg>
