<?xml version="1.0" standalone="no"?>
<!DOCTYPE svg PUBLIC "-//W3C//DTD SVG 20010904//EN"
 "http://www.w3.org/TR/2001/REC-SVG-20010904/DTD/svg10.dtd">
<svg version="1.0" xmlns="http://www.w3.org/2000/svg"
 width="512.000000pt" height="512.000000pt" viewBox="0 0 512.000000 512.000000"
 preserveAspectRatio="xMidYMid meet">

<g transform="translate(0.000000,512.000000) scale(0.100000,-0.100000)"
fill="#000000" stroke="none">
<path d="M2643 4280 c-44 -20 -88 -54 -146 -112 -101 -100 -168 -187 -395
-513 -280 -399 -361 -504 -516 -663 -192 -198 -337 -282 -811 -472 -154 -61
-312 -126 -351 -144 -171 -79 -314 -198 -368 -304 -176 -348 72 -756 629
-1035 285 -142 566 -213 890 -224 405 -13 808 41 1013 137 117 55 168 96 281
224 193 218 261 234 1018 241 445 4 574 11 729 40 209 39 375 124 466 239 l41
51 -7 84 c-8 112 -30 200 -66 277 -32 66 -110 160 -153 183 l-25 13 -5 422
c-3 345 -7 438 -22 516 -66 359 -218 612 -428 715 -98 47 -174 65 -282 65
-161 0 -214 -32 -254 -151 -47 -142 -121 -221 -238 -255 l-55 -16 6 -41 c4
-22 9 -44 12 -48 7 -12 101 18 167 54 96 50 167 148 208 286 7 24 23 50 36 59
33 21 171 20 247 -2 80 -24 206 -90 206 -108 0 -3 -18 -10 -41 -17 -65 -20
-111 -75 -154 -184 -46 -121 -83 -176 -146 -223 -149 -109 -361 -135 -594 -73
-145 38 -155 41 -155 49 0 4 18 52 40 107 51 128 73 215 64 256 -26 123 -201
337 -374 459 -89 63 -158 96 -248 119 -104 26 -146 24 -219 -11z m192 -85
c167 -44 374 -206 495 -387 64 -97 67 -118 32 -224 -17 -49 -42 -115 -57 -146
l-26 -56 -102 34 c-135 45 -248 68 -300 60 -23 -4 -67 -18 -98 -32 l-57 -26
-226 152 -227 151 38 52 c224 312 351 436 443 437 14 0 52 -7 85 -15z m1808
-635 c41 -83 52 -114 51 -150 -1 -53 -67 -260 -92 -289 -12 -13 -81 -39 -222
-80 -658 -192 -1084 -279 -1328 -269 -161 7 -188 29 -142 116 43 80 40 79 128
53 104 -31 199 -38 239 -17 41 21 173 126 246 195 l58 55 177 1 c165 1 182 2
247 26 96 35 142 60 202 108 67 53 106 111 154 228 52 128 73 151 154 163 51
8 59 -1 128 -140z m-2041 -235 c-20 -16 -72 -61 -115 -98 -43 -38 -83 -67 -90
-64 -7 3 -83 64 -170 137 -97 81 -155 136 -150 143 4 7 36 53 71 104 l64 92
214 -142 214 -142 -38 -30z m633 -32 c127 -43 232 -79 235 -81 7 -5 -88 -90
-170 -152 -80 -61 -95 -62 -256 -15 -143 42 -219 46 -273 13 -64 -39 -180
-130 -441 -348 -270 -224 -436 -353 -535 -413 -148 -90 -311 -61 -470 85 -61
56 -172 186 -164 192 2 2 34 19 71 38 l67 35 33 -34 c51 -54 147 -123 213
-154 86 -41 144 -40 219 6 l58 35 30 -25 30 -26 34 38 33 38 -23 20 -24 20 85
75 c117 103 106 98 146 67 l35 -27 32 36 31 36 -27 29 -27 28 74 69 c41 38 93
85 116 106 l41 37 35 -30 34 -30 31 38 31 39 -25 22 c-13 13 -24 27 -24 31 0
9 149 137 204 177 l36 25 70 -46 c38 -26 74 -47 79 -47 9 0 51 61 51 74 0 3
-25 23 -56 43 l-57 38 29 12 c54 25 145 7 389 -74z m-1002 -127 l98 -81 -50
-45 c-27 -25 -79 -71 -115 -104 l-66 -58 -24 18 c-13 11 -73 64 -133 119
l-110 100 89 118 89 118 62 -52 c34 -28 106 -88 160 -133z m2535 -464 l4 -452
51 -34 c117 -74 176 -189 193 -374 l7 -73 -51 -48 c-55 -51 -155 -108 -237
-135 -167 -53 -320 -66 -844 -71 -590 -6 -737 -22 -889 -96 -63 -31 -101 -65
-267 -240 -89 -95 -163 -139 -300 -182 -266 -83 -849 -113 -1141 -58 -242 45
-501 137 -555 197 -30 33 -63 87 -78 126 l-10 27 57 -26 c419 -190 770 -243
1137 -168 251 51 485 155 905 405 249 147 443 245 565 285 97 31 195 48 430
75 356 42 579 89 762 162 142 56 140 55 114 106 -12 23 -24 42 -27 42 -2 0
-28 -12 -56 -26 -122 -62 -414 -138 -613 -160 l-60 -7 155 159 c225 231 358
393 496 604 79 121 185 325 211 406 16 51 18 53 27 32 6 -14 12 -205 14 -476z
m-2867 216 l122 -112 -74 -69 c-41 -37 -85 -76 -99 -86 l-25 -19 -117 102
c-64 55 -117 103 -117 106 -1 8 171 190 180 190 4 0 63 -50 130 -112z m914 7
c-50 -96 -27 -183 62 -226 99 -48 358 -36 693 31 244 49 628 149 873 226 43
13 83 24 88 24 21 0 -118 -222 -234 -375 -135 -178 -310 -369 -485 -530 l-133
-123 -62 -6 c-134 -15 -256 -40 -351 -73 -174 -60 -254 -102 -678 -351 -75
-44 -183 -106 -241 -136 l-104 -56 -42 55 c-63 84 -147 163 -228 215 l-72 46
76 50 c41 27 110 85 152 130 159 167 201 329 110 422 -48 49 -93 58 -197 40
-48 -9 -88 -14 -90 -13 -1 1 48 40 110 88 62 47 238 189 392 317 258 214 375
304 383 296 2 -2 -8 -25 -22 -51z m-1180 -260 c55 -47 101 -90 103 -95 2 -5
-15 -18 -37 -30 -37 -18 -44 -19 -80 -7 -58 20 -119 59 -179 114 l-54 48 59
41 c48 35 60 40 73 29 8 -7 60 -52 115 -100z m-535 -183 c114 -153 268 -279
382 -313 62 -19 87 -21 246 -16 126 3 207 11 282 26 117 24 142 22 166 -14 14
-21 14 -32 4 -74 -31 -129 -189 -290 -364 -372 -67 -31 -69 -32 -179 -25 -416
25 -694 86 -912 199 -79 41 -117 69 -180 132 -73 72 -145 179 -145 214 0 17
85 57 380 177 151 61 277 112 280 113 3 0 21 -21 40 -47z m-759 -359 c42 -83
157 -207 249 -268 224 -149 542 -229 1030 -260 191 -12 274 -44 384 -145 77
-71 140 -150 128 -162 -5 -5 -55 -24 -112 -44 -416 -139 -826 -101 -1286 120
l-133 64 -15 54 c-8 29 -31 114 -51 188 -20 78 -46 150 -60 170 -44 64 -149
163 -192 182 -46 20 -40 22 -147 -30 -5 -3 4 19 20 48 25 45 126 150 145 150
3 0 21 -30 40 -67z m-19 -260 c36 -38 71 -79 78 -92 7 -13 32 -100 56 -192 24
-93 59 -211 78 -264 19 -52 32 -95 29 -95 -18 0 -171 119 -239 185 -124 122
-200 248 -219 364 -7 43 -7 44 55 102 34 33 69 59 79 59 10 0 47 -30 83 -67z"/>
<path d="M3665 2624 c-214 -32 -492 -97 -594 -137 -47 -19 -57 -28 -70 -61
-12 -32 -13 -48 -3 -95 17 -83 76 -193 139 -262 88 -94 157 -119 239 -84 168
70 559 374 636 494 44 70 35 121 -27 147 -43 18 -197 17 -320 -2z m265 -93 c0
-4 -38 -45 -84 -89 -154 -148 -455 -357 -532 -369 -33 -5 -39 -2 -93 54 -60
61 -114 157 -126 224 -6 33 -4 37 22 47 78 32 434 111 593 131 89 12 220 13
220 2z"/>
<path d="M2679 2269 c-130 -93 -422 -441 -490 -584 -36 -74 -37 -115 -5 -152
23 -27 28 -28 108 -27 101 1 216 38 383 121 185 93 285 177 285 241 0 71 -75
284 -128 364 -25 38 -67 68 -95 68 -8 0 -34 -14 -58 -31z m106 -153 c19 -40
45 -113 58 -161 l22 -87 -40 -34 c-117 -98 -453 -243 -541 -232 l-25 3 26 50
c46 86 191 269 322 405 69 71 129 130 134 130 4 0 24 -33 44 -74z"/>
</g>
</svg>
